<svg width="158" height="158" viewBox="0 0 158 158" fill="none" xmlns="http://www.w3.org/2000/svg">
<g clip-path="url(#clip0)">
<path d="M66.3689 141.314C65.7953 140.74 64.9991 140.41 64.1875 140.41C63.3759 140.41 62.5797 140.74 62.0057 141.314C61.4318 141.889 61.1016 142.684 61.1016 143.496C61.1016 144.308 61.4314 145.104 62.0057 145.678C62.5797 146.252 63.3759 146.582 64.1875 146.582C64.9991 146.582 65.7953 146.252 66.3689 145.678C66.9432 145.104 67.2734 144.308 67.2734 143.496C67.2734 142.684 66.9432 141.888 66.3689 141.314Z" fill="url(#paint0_linear)"/>
<path d="M107.818 8.60889H88.4476C86.7435 8.60889 85.3617 9.99046 85.3617 11.6948C85.3617 13.3992 86.7435 14.7808 88.4476 14.7808H107.818C109.522 14.7808 110.904 13.3992 110.904 11.6948C110.904 9.99046 109.522 8.60889 107.818 8.60889Z" fill="url(#paint1_linear)"/>
<path d="M140.289 69.625C141.993 69.625 143.375 68.2259 143.375 66.5V10.2981C143.375 4.06812 138.37 -1 132.218 -1H64.4225C58.2707 -1 53.2656 4.06812 53.2656 10.2981V31.8763C44.3581 39.1909 37.0145 48.5184 31.9807 58.9494C26.7238 69.8428 23.9452 82.0097 23.9452 94.1344V126.812H21.1719C17.7687 126.812 15 129.616 15 133.062V155.875C15 157.601 16.3819 159 18.0859 159C19.79 159 21.1719 157.601 21.1719 155.875V133.062H75.9263V155.875C75.9263 157.601 77.3082 159 79.0122 159C80.7163 159 82.0982 157.601 82.0982 155.875V142.125H132.218C138.37 142.125 143.375 137.057 143.375 130.827V92.4778C143.375 90.7522 141.993 89.3528 140.289 89.3528C138.585 89.3528 137.203 90.7522 137.203 92.4778V115.562H90.9369L100.751 101.558C103.092 98.2178 103.393 93.8822 101.537 90.2428C99.6803 86.6034 96.0145 84.3425 91.9695 84.3425C89.6677 84.3425 87.3831 85.1094 85.5362 86.5022L66.046 101.206C65.3369 101.741 64.4589 102.036 63.5745 102.036C61.2931 102.036 59.4375 100.156 59.4375 97.8463V94V22.7631H137.203V66.5C137.203 68.2259 138.585 69.625 140.289 69.625ZM137.203 121.812V130.827C137.203 133.61 134.967 135.875 132.218 135.875H82.0982V133.062C82.0982 131.011 81.1125 129.192 79.6004 128.052C82.1701 126.352 84.4931 124.253 86.4709 121.806C86.512 121.808 86.5524 121.812 86.5938 121.812H137.203ZM63.5745 108.286C65.7788 108.286 67.9658 107.551 69.7334 106.218L89.2233 91.5144C90.0117 90.92 90.9869 90.5925 91.9691 90.5925C93.722 90.5925 95.2486 91.5341 96.0528 93.1113C96.857 94.6881 96.7317 96.4934 95.7173 97.9409L82.695 116.523C78.1799 122.966 70.8268 126.812 63.0255 126.812H30.1171V94.1344C30.1171 73.4134 38.48 54.0797 53.2656 40.1419V94V97.8463C53.2656 103.603 57.8902 108.286 63.5745 108.286ZM59.4375 16.5131V10.2981C59.4375 7.51469 61.6739 5.25 64.4225 5.25H132.218C134.967 5.25 137.203 7.51469 137.203 10.2981V16.5131H59.4375Z" fill="url(#paint2_linear)"/>
<path d="M100.314 125.777C99.7406 125.203 98.9444 124.872 98.1328 124.872C97.3212 124.872 96.525 125.202 95.9511 125.777C95.3771 126.35 95.0469 127.147 95.0469 127.958C95.0469 128.773 95.3768 129.566 95.9511 130.14C96.525 130.717 97.3212 131.044 98.1328 131.044C98.9444 131.044 99.7406 130.717 100.314 130.14C100.888 129.566 101.219 128.773 101.219 127.958C101.219 127.147 100.889 126.35 100.314 125.777Z" fill="url(#paint3_linear)"/>
<path d="M142.283 76.8182C141.709 76.2443 140.913 75.9141 140.102 75.9141C139.29 75.9141 138.494 76.2443 137.92 76.8182C137.346 77.3922 137.016 78.1884 137.016 79C137.016 79.8116 137.346 80.6078 137.92 81.1814C138.494 81.7554 139.29 82.0859 140.102 82.0859C140.913 82.0859 141.709 81.7557 142.283 81.1814C142.857 80.6078 143.188 79.8116 143.188 79C143.188 78.1884 142.857 77.3922 142.283 76.8182Z" fill="url(#paint4_linear)"/>
<path d="M125.33 60.0586H123.603C122.838 48.5454 114.226 39.134 103.055 37.092C103.346 36.4574 103.51 35.7525 103.51 35.0098C103.51 32.2474 101.262 30 98.5 30C95.7376 30 93.4902 32.2474 93.4902 35.0098C93.4902 35.7525 93.654 36.4574 93.9452 37.092C82.7745 39.134 74.1621 48.5454 73.3971 60.0586H71.6699C71.6123 60.0586 71.5554 60.0615 71.4991 60.0672C70.6572 60.1528 70 60.8639 70 61.7285C70 62.6508 70.7477 63.3984 71.6699 63.3984C73.0715 63.3984 74.3824 64.2079 75.0098 65.4627C76.4333 68.3096 79.2949 70.0781 82.4779 70.0781H114.522C117.705 70.0781 120.567 68.3096 121.99 65.4626C122.627 64.1893 123.907 63.3984 125.33 63.3984C126.252 63.3984 127 62.6508 127 61.7285C127 60.8063 126.252 60.0586 125.33 60.0586ZM98.5 33.3398C99.4208 33.3398 100.17 34.089 100.17 35.0098C100.17 35.9306 99.4208 36.6797 98.5 36.6797C97.5792 36.6797 96.8301 35.9306 96.8301 35.0098C96.8301 34.089 97.5792 33.3398 98.5 33.3398ZM119.003 63.969C118.149 65.6771 116.432 66.7383 114.522 66.7383H82.4779C80.568 66.7383 78.8511 65.6771 77.9961 63.9672C77.8982 63.7713 77.7913 63.582 77.6777 63.3973H119.322C119.208 63.5826 119.101 63.7724 119.003 63.969ZM76.7436 60.0586C77.6035 48.8654 87.033 40.0195 98.5 40.0195C109.967 40.0195 119.397 48.8654 120.256 60.0586H76.7436Z" fill="url(#paint5_linear)"/>
</g>
<defs>
<linearGradient id="paint0_linear" x1="64.1875" y1="140.41" x2="64.1875" y2="146.582" gradientUnits="userSpaceOnUse">
<stop stop-color="#FF8000"/>
<stop offset="1" stop-color="#C0272D"/>
</linearGradient>
<linearGradient id="paint1_linear" x1="98.1328" y1="8.60889" x2="98.1328" y2="14.7808" gradientUnits="userSpaceOnUse">
<stop stop-color="#FF8000"/>
<stop offset="1" stop-color="#C0272D"/>
</linearGradient>
<linearGradient id="paint2_linear" x1="79.1875" y1="-1" x2="79.1875" y2="159" gradientUnits="userSpaceOnUse">
<stop stop-color="#FF8000"/>
<stop offset="1" stop-color="#C0272D"/>
</linearGradient>
<linearGradient id="paint3_linear" x1="98.1328" y1="124.872" x2="98.1328" y2="131.044" gradientUnits="userSpaceOnUse">
<stop stop-color="#FF8000"/>
<stop offset="1" stop-color="#C0272D"/>
</linearGradient>
<linearGradient id="paint4_linear" x1="140.102" y1="75.9141" x2="140.102" y2="82.0859" gradientUnits="userSpaceOnUse">
<stop stop-color="#FF8000"/>
<stop offset="1" stop-color="#C0272D"/>
</linearGradient>
<linearGradient id="paint5_linear" x1="98.5" y1="70.0781" x2="98.5" y2="30" gradientUnits="userSpaceOnUse">
<stop stop-color="#C0272D"/>
<stop offset="1" stop-color="#FF8000"/>
</linearGradient>
<clipPath id="clip0">
<rect width="158" height="158" fill="white"/>
</clipPath>
</defs>
</svg>
