<svg width="160" height="160" viewBox="0 0 160 160" fill="none" xmlns="http://www.w3.org/2000/svg">
<g clip-path="url(#clip0)">
<path d="M150.479 23.339H47.7076C43.6325 23.339 43.6268 29.6865 47.7076 29.6865H150.479C152.229 29.6865 153.652 31.1103 153.652 32.8603V107.862C153.652 109.612 152.229 111.036 150.479 111.036H94.908C93.9365 111.036 93.0187 111.481 92.4166 112.243L79.6149 128.462L66.0371 112.177C65.4341 111.454 64.541 111.036 63.5993 111.036H9.52133C7.77131 111.036 6.34756 109.612 6.34756 107.862V32.8603C6.34756 31.1103 7.77131 29.6865 9.52133 29.6865H21.5982C25.6733 29.6865 25.679 23.339 21.5982 23.339H9.52133C4.27127 23.339 0 27.6103 0 32.8603V107.862C0 113.112 4.27127 117.384 9.52133 117.384H62.1137L77.245 135.531C78.5228 137.064 80.9371 137.033 82.1739 135.465L96.4464 117.384H150.479C155.729 117.384 160 113.112 160 107.862V32.8603C160 27.6103 155.729 23.339 150.479 23.339Z" fill="url(#paint0_linear)"/>
<path d="M17.5754 64.1742C17.2393 65.2082 17.4561 66.3422 18.1499 67.1794L24.3295 74.64L23.7154 84.3086C23.233 91.8828 34.6047 83.8392 37.058 83.8881C39.5326 83.9376 50.8776 91.7971 50.4005 84.3086L49.7861 74.64L55.9661 67.1794C57.4095 65.4373 56.5145 62.6447 54.3091 62.0804L44.9245 59.6772L39.7386 51.4946C38.5278 49.5834 35.5955 49.5716 34.3771 51.4946L29.1911 59.6772L19.8066 62.0804C18.7532 62.3499 17.9115 63.1398 17.5754 64.1742ZM31.9853 65.5135C34.3317 64.913 35.8761 60.9861 37.0577 59.1215C38.2202 60.956 39.8062 64.9187 42.13 65.5135L47.8828 66.9868L44.0942 71.5602C43.5785 72.1829 43.3198 72.9792 43.3713 73.786L43.748 79.713L38.2278 77.5234C37.476 77.2254 36.639 77.2254 35.8872 77.5234L30.367 79.713L30.7434 73.786C30.7948 72.9792 30.5362 72.1829 30.0204 71.5602L26.2322 66.9868L31.9853 65.5135Z" fill="url(#paint1_linear)"/>
<path d="M99.165 64.1741C98.8289 63.1401 97.9872 62.3498 96.9338 62.0801L87.5493 59.6769L82.3633 51.4942C81.1525 49.583 78.2203 49.5712 77.0019 51.4942L71.8159 59.6769L62.4314 62.0801C61.378 62.3498 60.536 63.1401 60.2002 64.1741C59.8644 65.2081 60.0809 66.3421 60.7747 67.1794L66.9547 74.64L66.3402 84.3086C65.8575 91.8825 77.2298 83.8392 79.6828 83.888C82.1574 83.9376 93.5023 91.7971 93.0253 84.3086L92.4109 74.64L98.5909 67.1794C99.2843 66.3421 99.5011 65.2081 99.165 64.1741ZM86.7194 71.5601C86.2036 72.1828 85.945 72.9791 85.9964 73.7859L86.3731 79.7129C84.3911 78.9268 81.8603 77.2996 79.6828 77.2996C77.5154 77.2996 74.9691 78.9287 72.9924 79.7129L73.3692 73.7859C73.4206 72.9791 73.1619 72.1828 72.6462 71.5601L68.8577 66.9867L74.6104 65.5135C76.9568 64.913 78.5012 60.9861 79.6828 59.1215C80.8453 60.9559 82.4313 64.9187 84.7551 65.5135L90.5079 66.9867L86.7194 71.5601Z" fill="url(#paint2_linear)"/>
<path d="M141.79 64.1741C141.454 63.1398 140.612 62.3498 139.559 62.0801L130.174 59.6769L124.988 51.4942C123.777 49.583 120.845 49.5712 119.627 51.4942L114.441 59.6769L105.056 62.0801C102.864 62.6412 101.947 65.4262 103.399 67.1791L109.579 74.6397L108.965 84.3083C108.482 91.8812 119.849 83.8385 122.307 83.8877C124.777 83.9369 136.127 91.7987 135.65 84.3083L135.036 74.6397L141.215 67.1791C141.909 66.3421 142.126 65.2081 141.79 64.1741ZM129.344 71.5601C128.829 72.1828 128.57 72.9791 128.621 73.7859L128.998 79.7129L123.478 77.5233C122.698 77.2253 121.917 77.2253 121.137 77.5233L115.617 79.7129L115.994 73.7859C116.045 72.9791 115.786 72.1828 115.271 71.5601L111.482 66.9867L117.235 65.5135C119.581 64.913 121.126 60.9861 122.307 59.1215C123.47 60.9559 125.056 64.9187 127.38 65.5135L133.132 66.9867L129.344 71.5601Z" fill="url(#paint3_linear)"/>
<path d="M32.9619 29.1498C35.3508 30.7868 38.5401 28.4081 37.7781 25.6672C37.4154 24.3622 36.2325 23.4116 34.8776 23.3443C33.5259 23.2774 32.2481 24.1111 31.7625 25.3724C31.2395 26.732 31.7349 28.3478 32.9619 29.1498Z" fill="url(#paint4_linear)"/>
</g>
<defs>
<linearGradient id="paint0_linear" x1="80" y1="23.339" x2="80" y2="136.661" gradientUnits="userSpaceOnUse">
<stop stop-color="#FF8000"/>
<stop offset="1" stop-color="#C0272D"/>
</linearGradient>
<linearGradient id="paint1_linear" x1="37.044" y1="50.0568" x2="37.044" y2="87.559" gradientUnits="userSpaceOnUse">
<stop stop-color="#FF8000"/>
<stop offset="1" stop-color="#C0272D"/>
</linearGradient>
<linearGradient id="paint2_linear" x1="79.6827" y1="50.0564" x2="79.6827" y2="87.5588" gradientUnits="userSpaceOnUse">
<stop stop-color="#FF8000"/>
<stop offset="1" stop-color="#C0272D"/>
</linearGradient>
<linearGradient id="paint3_linear" x1="122.321" y1="50.0564" x2="122.321" y2="87.558" gradientUnits="userSpaceOnUse">
<stop stop-color="#FF8000"/>
<stop offset="1" stop-color="#C0272D"/>
</linearGradient>
<linearGradient id="paint4_linear" x1="34.7245" y1="23.3406" x2="34.7245" y2="29.6866" gradientUnits="userSpaceOnUse">
<stop stop-color="#FF8000"/>
<stop offset="1" stop-color="#C0272D"/>
</linearGradient>
<clipPath id="clip0">
<rect width="160" height="160" fill="white"/>
</clipPath>
</defs>
</svg>
