<svg width="49" height="49" viewBox="0 0 49 49" fill="none" xmlns="http://www.w3.org/2000/svg">
<g clip-path="url(#clip0)">
<path d="M47.6819 42.1651C48.5896 40.8821 49.0531 39.337 48.9952 37.7474C48.929 35.9242 48.1813 34.2086 46.8901 32.9178L43.6878 29.7155C44.3472 27.2911 44.5412 24.7938 44.2627 22.2846C44.219 21.891 43.8642 21.6076 43.4702 21.6506C43.0762 21.6943 42.7924 22.0491 42.8362 22.4431C43.0638 24.4937 42.9506 26.5356 42.5027 28.53L41.4754 27.5027C40.9486 26.976 40.2477 26.6859 39.5022 26.6859C38.7549 26.6859 38.054 26.976 37.5284 27.5031C36.4412 28.5913 36.4412 30.3618 37.5287 31.4493L40.2256 34.1451C39.4723 35.3687 38.5725 36.5085 37.5441 37.5377C33.0565 42.0253 26.61 43.8709 20.4663 42.4997L21.4951 41.4709C22.0218 40.9437 22.3119 40.2435 22.3119 39.4985C22.3119 38.7515 22.0215 38.0506 21.4947 37.525C20.4072 36.4378 18.6371 36.4378 17.5481 37.525L14.8479 40.2249C13.6164 39.4686 12.4732 38.5672 11.4448 37.5377C10.3618 36.4547 9.41894 35.2453 8.64061 33.9443C8.63313 33.929 8.62752 33.9129 8.61855 33.8984C8.31462 33.3832 8.03723 32.8568 7.79274 32.3308C7.43871 31.5768 7.13291 30.7887 6.88505 29.9891C6.87384 29.9532 6.85926 29.9192 6.84318 29.8863C6.14336 27.592 5.89774 25.214 6.11457 22.8159C6.15046 22.4211 5.85924 22.0723 5.46446 22.0364C5.07081 22.0001 4.72089 22.2917 4.685 22.6865C4.46033 25.1658 4.6951 27.6257 5.38072 30.0052L2.28981 33.0961C1.00529 34.3802 0.257987 36.0861 0.185089 37.8988C0.121536 39.479 0.573882 41.0178 1.46736 42.2993L1.39558 42.3711C0.855758 42.9109 0.558555 43.6283 0.558555 44.3913C0.558555 45.1543 0.855758 45.8717 1.39558 46.4115L2.72645 47.7424C3.2831 48.2994 4.01471 48.5779 4.74631 48.5779C5.47792 48.5779 6.20915 48.2994 6.76617 47.7424L6.83047 47.6781C8.04882 48.5409 9.49147 48.9974 10.9741 48.9974C11.4149 48.9974 11.8594 48.957 12.302 48.8751C12.6919 48.803 12.9495 48.4284 12.8773 48.0389C12.8052 47.6489 12.4299 47.3921 12.0411 47.4635C10.5756 47.7346 9.09258 47.4355 7.86564 46.6433L9.37745 45.1315C9.7483 44.7607 10.0044 44.3061 10.1285 43.81C11.1887 44.5461 12.6594 44.4433 13.6033 43.4989L15.4628 41.6398C15.4639 41.6387 15.4651 41.6376 15.4666 41.6361L18.5627 38.5403C19.0917 38.0121 19.9519 38.0121 20.4805 38.5407C20.7358 38.7953 20.8764 39.1355 20.8764 39.4985C20.8764 39.86 20.7355 40.2002 20.4798 40.4559L18.5657 42.3699C18.5627 42.3726 18.5605 42.3752 18.5578 42.3778L15.0647 45.8706C14.8748 46.0605 14.671 46.2381 14.4587 46.3988C14.1424 46.6377 14.08 47.0878 14.3192 47.4041C14.4602 47.5906 14.6748 47.6889 14.892 47.6889C15.043 47.6889 15.1952 47.6415 15.3245 47.5435C15.5892 47.3435 15.8434 47.1222 16.0797 46.8856L19.2809 43.6851C21.0031 44.1517 22.7542 44.3797 24.4926 44.3797C26.3606 44.3797 28.2126 44.115 29.9951 43.6021L33.0991 46.7072C34.3836 47.9914 36.0895 48.7387 37.9026 48.8112C38.0002 48.8153 38.0974 48.8172 38.1946 48.8172C39.6716 48.8172 41.1012 48.3667 42.3034 47.5286L42.376 47.6011C42.9326 48.1577 43.6642 48.4363 44.3958 48.4363C45.1274 48.4363 45.8587 48.1577 46.4157 47.6011L47.7465 46.2702C48.2864 45.7304 48.5836 45.013 48.5836 44.25C48.5836 43.487 48.2864 42.7696 47.7465 42.2301L47.6819 42.1651ZM1.61914 37.9568C1.67746 36.5051 2.27598 35.1395 3.30441 34.1111L5.88653 31.5293C6.22672 32.4299 6.63271 33.3058 7.10076 34.1477L5.67568 35.5724C5.16165 36.0857 4.87865 36.7691 4.87865 37.4962C4.87865 38.0431 5.03866 38.5654 5.33698 39.0091C4.84912 39.1295 4.38705 39.38 4.00648 39.7602L2.50215 41.2645C1.88232 40.2843 1.57166 39.1347 1.61914 37.9568ZM8.36247 44.1165L6.27607 46.2026C6.27607 46.2029 6.27569 46.2029 6.27532 46.2033L5.7512 46.7274C5.19717 47.2815 4.29546 47.2815 3.74106 46.7274L2.41019 45.3966C2.14177 45.1281 1.99373 44.7711 1.99373 44.3913C1.99373 44.0119 2.14177 43.6548 2.41019 43.3864L2.92347 42.8731C2.92534 42.8713 2.92721 42.8698 2.9287 42.8679L5.02146 40.7755C5.29848 40.4985 5.66222 40.3598 6.02634 40.3598C6.38859 40.3598 6.75047 40.4974 7.02711 40.7718L8.29854 42.0425L8.36247 42.1064C8.63089 42.3748 8.77856 42.7318 8.77856 43.1113C8.77893 43.4911 8.63089 43.8481 8.36247 44.1165ZM12.5884 42.484C12.3457 42.727 12.0227 42.8608 11.6796 42.8608C11.3364 42.8608 11.0134 42.727 10.7708 42.484L9.38455 41.0981C9.38455 41.0981 9.37745 41.0914 9.37745 41.091L8.75762 40.4712L8.04658 39.7605C8.04508 39.759 8.04321 39.7576 8.04172 39.7561L6.69066 38.4054C6.44766 38.1627 6.31383 37.8398 6.31383 37.4962C6.31383 37.153 6.44766 36.8304 6.69066 36.5878L7.86863 35.4098C8.5221 36.4016 9.26567 37.3373 10.0904 38.2027L9.72138 38.5717C9.441 38.8521 9.441 39.3063 9.72138 39.5867C9.86157 39.7269 10.0455 39.7968 10.2291 39.7968C10.4126 39.7968 10.5965 39.7269 10.7367 39.5867L11.1177 39.2058C11.9558 39.9688 12.856 40.6578 13.8075 41.2652L12.5884 42.484ZM38.5441 28.5173C38.7987 28.262 39.1389 28.1214 39.5019 28.1214C39.8645 28.1214 40.2047 28.2623 40.4604 28.5177L45.8751 33.9327C47.8049 35.8625 48.0864 38.8899 46.6475 41.1307L45.1356 39.6189C44.7573 39.2409 44.2986 38.9916 43.8141 38.8701C44.13 38.4177 44.3009 37.8805 44.3009 37.3171C44.3009 36.5904 44.0179 35.9074 43.5038 35.3933L38.5437 30.4343C38.0155 29.9061 38.0155 29.0463 38.5441 28.5173ZM38.2013 38.9015L38.5751 39.2753C38.7153 39.4151 38.8992 39.4854 39.0828 39.4854C39.2664 39.4854 39.4503 39.4151 39.5905 39.2749C39.8705 38.9945 39.8705 38.5403 39.5901 38.2599L39.2035 37.8734C39.9684 37.0338 40.6582 36.1343 41.2653 35.1851L42.4889 36.4083C42.7319 36.6509 42.8653 36.9736 42.8653 37.3171C42.8653 37.6603 42.7319 37.9829 42.4889 38.2259L41.0993 39.6155C41.0982 39.6166 41.0967 39.6177 41.0956 39.6189L39.7647 40.9497C39.7632 40.9508 39.7621 40.9523 39.7609 40.9535L38.4091 42.3056C37.9078 42.8066 37.0925 42.8066 36.5908 42.3056L35.4046 41.1191C36.3919 40.4712 37.3287 39.7314 38.2013 38.9015ZM37.9598 47.3772C36.5082 47.3188 35.1425 46.7203 34.1141 45.6923L31.5245 43.1023C32.0053 42.9214 32.4797 42.7217 32.9436 42.5045C33.3466 42.3165 33.7496 42.1109 34.1462 41.8914L35.5758 43.3206C36.5085 44.253 37.9545 44.3655 39.011 43.6593C39.1344 44.1588 39.3912 44.6171 39.7643 44.9902L41.2679 46.4934C40.2873 47.1132 39.137 47.4239 37.9598 47.3772ZM46.7316 45.2549L45.4003 46.5857C44.8467 47.1398 43.945 47.1401 43.3906 46.5857L40.7797 43.9748C40.5109 43.7064 40.3632 43.3494 40.3632 42.97C40.3632 42.5913 40.5105 42.235 40.7778 41.9669L42.1124 40.6323C42.3894 40.3564 42.7524 40.2185 43.1154 40.2185C43.4792 40.2185 43.8433 40.3568 44.1203 40.6338L46.219 42.7326C46.2194 42.7326 46.2198 42.7329 46.2198 42.7333L46.7316 43.2447C47.0004 43.5131 47.148 43.8702 47.148 44.25C47.148 44.6298 47 44.9865 46.7316 45.2549Z" fill="#CCCCCC"/>
<path d="M7.52606 21.4882C8.05281 22.0149 8.75338 22.305 9.49845 22.305C10.2458 22.305 10.9467 22.0149 11.4723 21.4878C12.5595 20.3996 12.5595 18.6291 11.4719 17.5415L8.7631 14.8331C9.46443 13.6929 10.294 12.6267 11.2368 11.6536C11.257 11.6371 11.2768 11.6199 11.2959 11.6009C11.3194 11.5773 11.3404 11.5519 11.3602 11.5257C11.3882 11.4973 11.4166 11.4685 11.445 11.4397C12.5165 10.3687 13.7101 9.43632 14.9935 8.66471C15.0302 8.6505 15.0661 8.63331 15.1008 8.61275C15.6115 8.31106 16.1375 8.03329 16.6661 7.78693C17.4227 7.43253 18.2108 7.1271 19.0089 6.87962C19.0508 6.86654 19.0904 6.84897 19.1286 6.82878C22.203 5.89717 25.4334 5.78165 28.5508 6.48373L27.5104 7.52412C26.983 8.05124 26.6925 8.75181 26.6925 9.4965C26.6925 10.2427 26.9833 10.9436 27.5104 11.4696C28.5983 12.5575 30.3685 12.5575 31.456 11.4696L34.1614 8.76453C35.3846 9.51781 36.5207 10.4154 37.5439 11.4397C38.6984 12.5949 39.6924 13.8903 40.4988 15.2895C40.8139 15.8376 41.7111 17.733 42.0999 18.9281C42.11 18.9812 42.1265 19.0328 42.1485 19.0825C42.1489 19.0836 42.1493 19.0844 42.1493 19.0851C42.2936 19.5618 42.5792 19.5109 42.8046 19.5109H42.8054C42.9889 19.5106 43.1721 19.4407 43.3123 19.3008L46.7154 15.8989C47.9999 14.6144 48.7472 12.9089 48.8197 11.0958C48.8833 9.51594 48.4309 7.97684 47.5374 6.69532L47.6092 6.62354C48.1487 6.08409 48.4459 5.36669 48.4459 4.60331C48.4459 3.8403 48.1487 3.1229 47.6092 2.58345L46.2784 1.25258C45.1643 0.138907 43.3523 0.138907 42.2383 1.25258L42.174 1.31688C40.8909 0.409193 39.347 -0.0547424 37.7552 0.00395053C35.9316 0.0704941 34.216 0.818175 32.9248 2.10942L29.7352 5.29903C26.2035 4.33639 22.507 4.36218 18.9895 5.37305L15.9012 2.284C14.6167 0.999861 12.9109 0.252554 11.0977 0.180029C9.51938 0.116103 7.97879 0.568823 6.69689 1.4623L6.62511 1.39015C5.51107 0.27648 3.69906 0.276854 2.58502 1.39015L1.25452 2.72102C0.714694 3.26047 0.417491 3.97787 0.417491 4.74088C0.417491 5.50426 0.714694 6.22166 1.25452 6.76112L1.31919 6.82579C0.411135 8.10918 -0.0520526 9.65427 0.00551882 11.2438C0.0716886 13.0671 0.819369 14.7822 2.11061 16.0735L7.52606 21.4882ZM39.5975 7.87366C39.6072 7.88338 39.6169 7.89385 39.627 7.90357L42.3138 10.5892C42.5568 10.8322 42.6906 11.1552 42.6906 11.4984C42.6906 11.842 42.5571 12.1646 42.3138 12.4072L41.1336 13.5874C40.4816 12.5953 39.7388 11.6592 38.9144 10.7919L39.2834 10.4233C39.5638 10.1429 39.5638 9.68828 39.2834 9.40828C39.003 9.1279 38.5485 9.1279 38.2685 9.40828L37.889 9.78773C37.0512 9.02322 36.1521 8.33311 35.2018 7.72488L36.4161 6.51064C36.9174 6.00932 37.7335 6.00932 38.2348 6.51064L39.5975 7.87366ZM47.3857 11.0382C47.3277 12.4898 46.7292 13.8551 45.7008 14.8835L43.0996 17.4836C42.731 16.5064 42.19 15.4103 41.8966 14.8548L43.3284 13.4226C43.8428 12.9089 44.1258 12.2259 44.1258 11.4988C44.1258 10.9519 43.9658 10.43 43.6675 9.98586C44.1553 9.86549 44.6178 9.61501 44.9983 9.23444L46.5023 7.73048C47.1225 8.71107 47.4331 9.86025 47.3857 11.0382ZM44.2585 1.85184C44.6226 1.85184 44.9864 1.99054 45.2634 2.26755L46.5946 3.59843C46.863 3.86684 47.0107 4.22349 47.0107 4.60331C47.0107 4.98313 46.863 5.34015 46.5946 5.60857L46.0724 6.13082C46.0709 6.13232 46.069 6.13381 46.0679 6.13531L43.9833 8.21947C43.4293 8.7735 42.5276 8.7735 41.9736 8.21947L40.6427 6.88859C40.0883 6.33419 40.0883 5.43249 40.6423 4.87846L43.2536 2.26755C43.5306 1.99016 43.8944 1.85184 44.2585 1.85184ZM33.9401 3.12402C35.8703 1.19388 38.898 0.912383 41.1395 2.35167L39.6274 3.86348C39.249 4.24181 38.9993 4.70088 38.8782 5.18575C37.818 4.44854 36.3458 4.55097 35.4011 5.49567L30.4417 10.4547C29.9135 10.9829 29.054 10.9829 28.5251 10.4543C28.269 10.199 28.1284 9.85876 28.1284 9.4965C28.1284 9.13538 28.2693 8.79518 28.5258 8.53873L33.9401 3.12402ZM6.51258 12.5826C6.26959 12.3399 6.13613 12.0173 6.13613 11.6738C6.13613 11.3306 6.26959 11.0079 6.51258 10.7649L10.5927 6.6856C11.094 6.18428 11.9093 6.18428 12.4107 6.6856L13.583 7.85759C12.5912 8.50994 11.6548 9.25313 10.7878 10.0778L10.4256 9.71558C10.1452 9.43557 9.69097 9.43557 9.41059 9.71558C9.13059 9.99596 9.13059 10.4505 9.41059 10.7309L9.78369 11.1036C9.01918 11.9422 8.3302 12.8431 7.72308 13.7931L6.51258 12.5826ZM11.0405 1.61408C12.4922 1.67203 13.8582 2.27054 14.8866 3.29898L17.4654 5.8781C16.5637 6.2183 15.6874 6.62429 14.8462 7.09084L13.4256 5.67025C12.4933 4.73789 11.0465 4.62537 9.99005 5.3323C9.86668 4.83247 9.60985 4.37414 9.23638 4.00105L7.73242 2.49747C8.71338 1.87726 9.86331 1.5666 11.0405 1.61408ZM2.2695 3.736L3.60037 2.40513C3.87738 2.12811 4.24113 1.98979 4.60525 1.98979C4.96937 1.98979 5.33312 2.12811 5.61051 2.40513L6.13052 2.92551C6.13314 2.92776 6.13575 2.93075 6.13837 2.93299L8.22178 5.01603C8.4902 5.28482 8.63787 5.64146 8.63787 6.02129C8.63787 6.40111 8.4902 6.75775 8.22178 7.02617L6.89054 8.35704C6.3365 8.91107 5.4348 8.91144 4.8804 8.35704L2.2695 5.74614C2.0007 5.47772 1.85304 5.1207 1.85304 4.74088C1.85304 4.36143 2.0007 4.00442 2.2695 3.736ZM2.35398 7.86058L3.86542 9.37202C4.24375 9.75034 4.70282 9.99969 5.18732 10.1212C4.87142 10.5735 4.70058 11.1104 4.70058 11.6738C4.70058 12.4005 4.98395 13.0839 5.49761 13.5975L10.457 18.5565C10.9852 19.0848 10.9852 19.9446 10.4566 20.4736C10.2016 20.7289 9.86145 20.8695 9.49845 20.8695C9.13694 20.8695 8.79675 20.7289 8.54104 20.4732L3.12559 15.0581C1.19545 13.1284 0.914325 10.1014 2.35398 7.86058Z" fill="#CCCCCC"/>
<path d="M14.8298 27.0268L11.3071 30.1491C10.7512 30.6418 10.6996 31.4949 11.1923 32.0508L13.1333 34.2404C13.1355 34.2427 13.1374 34.2453 13.1393 34.2479C13.1412 34.2498 13.1426 34.2513 13.1445 34.2528L15.0062 36.353C15.2717 36.6528 15.6425 36.8057 16.0149 36.8057C16.3326 36.8057 16.6515 36.6943 16.9076 36.4674L20.4303 33.3447C20.9866 32.8523 21.0378 31.9989 20.5451 31.443L16.7315 27.1412C16.2388 26.5853 15.3857 26.5341 14.8298 27.0268ZM15.7158 28.1595L17.0997 29.7203L13.7307 32.7507L12.3251 31.1648L15.7158 28.1595ZM16.0216 35.3346L14.6832 33.8247L18.0519 30.7947L19.4123 32.329L16.0216 35.3346Z" fill="#CCCCCC"/>
<path d="M32.3657 12.7794L27.3125 17.258C27.0213 17.5163 26.8482 17.8726 26.8247 18.261C26.8015 18.6494 26.9305 19.0236 27.1888 19.3148L30.8569 23.4525C31.1149 23.7437 31.4711 23.9168 31.8596 23.9404C31.8895 23.9422 31.9194 23.943 31.9489 23.943C32.3052 23.943 32.645 23.8144 32.9134 23.5763L37.9666 19.0973C38.2578 18.8393 38.4309 18.483 38.4545 18.0946C38.478 17.7058 38.3487 17.3316 38.0904 17.0404L34.4226 12.9031C33.8895 12.302 32.9669 12.2466 32.3657 12.7794ZM37.0216 18.0083C37.0212 18.0172 37.0171 18.021 37.0145 18.0229V18.0232L31.9612 22.5018C31.9586 22.5041 31.9556 22.5086 31.9459 22.5074C31.9369 22.5071 31.9332 22.5026 31.931 22.5003L28.2632 18.3627C28.261 18.3604 28.2572 18.3559 28.2576 18.3473C28.2584 18.3384 28.2625 18.3346 28.2647 18.3324L33.3179 13.8538C33.322 13.85 33.3273 13.8482 33.3321 13.8482C33.3385 13.8482 33.3441 13.8504 33.3482 13.8553L37.0163 17.9929C37.0186 17.9952 37.0223 17.9997 37.0216 18.0083Z" fill="#CCCCCC"/>
<path d="M21.492 24.232C20.82 23.968 20.304 23.584 19.944 23.08C19.584 22.576 19.404 21.964 19.404 21.244C19.404 20.596 19.566 20.014 19.89 19.498C20.214 18.97 20.694 18.556 21.33 18.256C21.978 17.944 22.758 17.788 23.67 17.788C24.582 17.788 25.356 17.944 25.992 18.256C26.64 18.556 27.126 18.97 27.45 19.498C27.786 20.014 27.954 20.596 27.954 21.244C27.954 21.94 27.768 22.552 27.396 23.08C27.024 23.596 26.514 23.98 25.866 24.232C26.61 24.46 27.198 24.862 27.63 25.438C28.074 26.002 28.296 26.686 28.296 27.49C28.296 28.27 28.104 28.954 27.72 29.542C27.336 30.118 26.79 30.568 26.082 30.892C25.386 31.204 24.582 31.36 23.67 31.36C22.758 31.36 21.954 31.204 21.258 30.892C20.574 30.568 20.04 30.118 19.656 29.542C19.272 28.954 19.08 28.27 19.08 27.49C19.08 26.686 19.296 25.996 19.728 25.42C20.16 24.844 20.748 24.448 21.492 24.232ZM26.37 21.442C26.37 20.71 26.13 20.146 25.65 19.75C25.17 19.354 24.51 19.156 23.67 19.156C22.842 19.156 22.188 19.354 21.708 19.75C21.228 20.146 20.988 20.716 20.988 21.46C20.988 22.132 21.234 22.672 21.726 23.08C22.23 23.488 22.878 23.692 23.67 23.692C24.474 23.692 25.122 23.488 25.614 23.08C26.118 22.66 26.37 22.114 26.37 21.442ZM23.67 24.952C22.782 24.952 22.056 25.162 21.492 25.582C20.928 25.99 20.646 26.608 20.646 27.436C20.646 28.204 20.916 28.822 21.456 29.29C22.008 29.758 22.746 29.992 23.67 29.992C24.594 29.992 25.326 29.758 25.866 29.29C26.406 28.822 26.676 28.204 26.676 27.436C26.676 26.632 26.4 26.02 25.848 25.6C25.296 25.168 24.57 24.952 23.67 24.952Z" fill="#CCCCCC"/>
</g>
<defs>
<clipPath id="clip0">
<rect width="49" height="49" fill="white"/>
</clipPath>
</defs>
</svg>
