<svg width="160" height="160" viewBox="0 0 160 160" fill="none" xmlns="http://www.w3.org/2000/svg">
<path d="M144.375 13.75H129.479V9.375C129.479 4.20563 125.273 0 120.104 0C114.935 0 110.729 4.20563 110.729 9.375V13.75H58.2291V9.375C58.2291 4.20563 54.0234 0 48.8541 0C43.6847 0 39.4791 4.20563 39.4791 9.375V13.8656C39.2134 13.7922 38.935 13.75 38.6459 13.75H26.1947C17.5791 13.75 10.5697 20.7594 10.5697 29.375V82.6041C10.5697 84.33 11.9691 85.7291 13.6947 85.7291C15.4203 85.7291 16.8197 84.33 16.8197 82.6041V45.9375H129.479C131.205 45.9375 132.604 44.5384 132.604 42.8125C132.604 41.0866 131.205 39.6875 129.479 39.6875H16.8197V29.375C16.8197 24.2056 21.0253 20 26.1947 20H38.6459C38.935 20 39.2134 19.9575 39.4791 19.8844V23.9062C39.4791 29.0756 43.6847 33.2812 48.8541 33.2812C54.0234 33.2812 58.2291 29.0756 58.2291 23.9062V20H110.729V23.9062C110.729 29.0756 114.935 33.2812 120.104 33.2812C125.273 33.2812 129.479 29.0756 129.479 23.9062V20H144.375C149.544 20 153.75 24.2056 153.75 29.375V148.123C153.75 151.226 151.226 153.75 148.123 153.75C145.02 153.75 142.496 151.226 142.496 148.123V140.039C142.496 138.313 141.097 136.914 139.371 136.914H103.021C101.295 136.914 99.8959 138.313 99.8959 140.039C99.8959 141.765 101.295 143.164 103.021 143.164H136.246V148.123C136.246 150.158 136.761 152.074 137.667 153.75H11.875C8.77344 153.75 6.25 151.227 6.25 148.125V143.164H76.1953C77.9209 143.164 79.3203 141.765 79.3203 140.039C79.3203 138.313 77.9209 136.914 76.1953 136.914H44.9716C50.4322 132.211 53.8997 125.255 53.8997 117.5C53.8997 103.37 42.4044 91.875 28.2747 91.875C14.145 91.875 2.64969 103.37 2.64969 117.5C2.64969 125.255 6.11719 132.211 11.5778 136.914H3.125C1.39938 136.914 0 138.313 0 140.039V148.125C0 154.673 5.32719 160 11.875 160H148.123C154.672 160 160 154.672 160 148.123V29.375C160 20.7594 152.991 13.75 144.375 13.75ZM51.9791 23.9062C51.9791 25.6294 50.5772 27.0312 48.8541 27.0312C47.1309 27.0312 45.7291 25.6294 45.7291 23.9062V9.375C45.7291 7.65188 47.1309 6.25 48.8541 6.25C50.5772 6.25 51.9791 7.65188 51.9791 9.375V23.9062ZM123.229 23.9062C123.229 25.6294 121.827 27.0312 120.104 27.0312C118.381 27.0312 116.979 25.6294 116.979 23.9062V9.375C116.979 7.65188 118.381 6.25 120.104 6.25C121.827 6.25 123.229 7.65188 123.229 9.375V23.9062ZM8.89969 117.5C8.89969 106.817 17.5912 98.125 28.2747 98.125C38.9581 98.125 47.6497 106.817 47.6497 117.5C47.6497 128.183 38.9581 136.875 28.2747 136.875C17.5912 136.875 8.89969 128.183 8.89969 117.5Z" fill="url(#paint0_linear)"/>
<path d="M146.347 40.6031C145.766 40.0219 144.959 39.6875 144.138 39.6875C143.315 39.6875 142.509 40.0219 141.928 40.6031C141.347 41.1844 141.013 41.9906 141.013 42.8125C141.013 43.6344 141.347 44.4406 141.928 45.0219C142.51 45.6031 143.315 45.9375 144.138 45.9375C144.959 45.9375 145.766 45.6031 146.347 45.0219C146.928 44.4406 147.263 43.6344 147.263 42.8125C147.263 41.9906 146.928 41.1844 146.347 40.6031Z" fill="url(#paint1_linear)"/>
<path d="M93.3278 137.828C92.7469 137.247 91.9406 136.916 91.1187 136.916C90.2969 136.916 89.4906 137.247 88.9094 137.828C88.3281 138.413 87.9937 139.216 87.9937 140.038C87.9937 140.863 88.3278 141.666 88.9094 142.25C89.4906 142.831 90.2969 143.163 91.1187 143.163C91.9406 143.163 92.7469 142.831 93.3278 142.25C93.9091 141.666 94.2437 140.859 94.2437 140.038C94.2437 139.216 93.9094 138.413 93.3278 137.828Z" fill="url(#paint2_linear)"/>
<path d="M70.7016 95C64.1538 95 58.8266 100.327 58.8266 106.875C58.8266 113.423 64.1538 118.75 70.7016 118.75C77.2494 118.75 82.5766 113.423 82.5766 106.875C82.5766 100.327 77.2494 95 70.7016 95ZM70.7016 112.5C67.6 112.5 65.0766 109.977 65.0766 106.875C65.0766 103.773 67.6 101.25 70.7016 101.25C73.8031 101.25 76.3266 103.773 76.3266 106.875C76.3266 109.977 73.8031 112.5 70.7016 112.5Z" fill="url(#paint3_linear)"/>
<path d="M99.8681 95C93.3203 95 87.9931 100.327 87.9931 106.875C87.9931 113.423 93.3203 118.75 99.8681 118.75C106.416 118.75 111.743 113.423 111.743 106.875C111.743 100.327 106.416 95 99.8681 95ZM99.8681 112.5C96.7666 112.5 94.2431 109.977 94.2431 106.875C94.2431 103.773 96.7666 101.25 99.8681 101.25C102.97 101.25 105.493 103.773 105.493 106.875C105.493 109.977 102.97 112.5 99.8681 112.5Z" fill="url(#paint4_linear)"/>
<path d="M129.035 95C122.487 95 117.16 100.327 117.16 106.875C117.16 113.423 122.487 118.75 129.035 118.75C135.583 118.75 140.91 113.423 140.91 106.875C140.91 100.327 135.583 95 129.035 95ZM129.035 112.5C125.933 112.5 123.41 109.977 123.41 106.875C123.41 103.773 125.933 101.25 129.035 101.25C132.137 101.25 134.66 103.773 134.66 106.875C134.66 109.977 132.137 112.5 129.035 112.5Z" fill="url(#paint5_linear)"/>
<path d="M41.535 62.5C34.9872 62.5 29.66 67.8272 29.66 74.375C29.66 80.9228 34.9872 86.25 41.535 86.25C48.0828 86.25 53.41 80.9228 53.41 74.375C53.41 67.8272 48.0828 62.5 41.535 62.5ZM41.535 80C38.4334 80 35.91 77.4766 35.91 74.375C35.91 71.2734 38.4334 68.75 41.535 68.75C44.6366 68.75 47.16 71.2734 47.16 74.375C47.16 77.4766 44.6366 80 41.535 80Z" fill="url(#paint6_linear)"/>
<path d="M99.8681 62.5C93.3203 62.5 87.9931 67.8272 87.9931 74.375C87.9931 80.9228 93.3203 86.25 99.8681 86.25C106.416 86.25 111.743 80.9228 111.743 74.375C111.743 67.8272 106.416 62.5 99.8681 62.5ZM99.8681 80C96.7666 80 94.2431 77.4766 94.2431 74.375C94.2431 71.2734 96.7666 68.75 99.8681 68.75C102.97 68.75 105.493 71.2734 105.493 74.375C105.493 77.4766 102.97 80 99.8681 80Z" fill="url(#paint7_linear)"/>
<path d="M129.035 62.5C122.487 62.5 117.16 67.8272 117.16 74.375C117.16 80.9228 122.487 86.25 129.035 86.25C135.583 86.25 140.91 80.9228 140.91 74.375C140.91 67.8272 135.583 62.5 129.035 62.5ZM129.035 80C125.933 80 123.41 77.4766 123.41 74.375C123.41 71.2734 125.933 68.75 129.035 68.75C132.137 68.75 134.66 71.2734 134.66 74.375C134.66 77.4766 132.137 80 129.035 80Z" fill="url(#paint8_linear)"/>
<path d="M70.7016 62.5C64.1538 62.5 58.8266 67.8272 58.8266 74.375C58.8266 80.9228 64.1538 86.25 70.7016 86.25C77.2494 86.25 82.5766 80.9228 82.5766 74.375C82.5766 67.8272 77.2494 62.5 70.7016 62.5ZM70.7016 80C67.6 80 65.0766 77.4766 65.0766 74.375C65.0766 71.2734 67.6 68.75 70.7016 68.75C73.8031 68.75 76.3266 71.2734 76.3266 74.375C76.3266 77.4766 73.8031 80 70.7016 80Z" fill="url(#paint9_linear)"/>
<path d="M39.4075 109.884C38.1869 108.664 36.2087 108.664 34.9878 109.884L24.8109 120.061L21.3331 116.583C20.1125 115.363 18.1344 115.363 16.9134 116.583C15.6931 117.804 15.6931 119.783 16.9134 121.003L22.6012 126.69C23.1875 127.276 23.9822 127.606 24.8109 127.606C25.6397 127.606 26.4344 127.276 27.0206 126.69L39.4075 114.303C40.6278 113.083 40.6278 111.104 39.4075 109.884Z" fill="url(#paint10_linear)"/>
<defs>
<linearGradient id="paint0_linear" x1="80" y1="0" x2="80" y2="160" gradientUnits="userSpaceOnUse">
<stop stop-color="#FF8000"/>
<stop offset="1" stop-color="#C0272D"/>
</linearGradient>
<linearGradient id="paint1_linear" x1="144.138" y1="39.6875" x2="144.138" y2="45.9375" gradientUnits="userSpaceOnUse">
<stop stop-color="#FF8000"/>
<stop offset="1" stop-color="#C0272D"/>
</linearGradient>
<linearGradient id="paint2_linear" x1="91.1187" y1="136.916" x2="91.1187" y2="143.163" gradientUnits="userSpaceOnUse">
<stop stop-color="#FF8000"/>
<stop offset="1" stop-color="#C0272D"/>
</linearGradient>
<linearGradient id="paint3_linear" x1="70.7016" y1="95" x2="70.7016" y2="118.75" gradientUnits="userSpaceOnUse">
<stop stop-color="#FF8000"/>
<stop offset="1" stop-color="#C0272D"/>
</linearGradient>
<linearGradient id="paint4_linear" x1="99.8681" y1="95" x2="99.8681" y2="118.75" gradientUnits="userSpaceOnUse">
<stop stop-color="#FF8000"/>
<stop offset="1" stop-color="#C0272D"/>
</linearGradient>
<linearGradient id="paint5_linear" x1="129.035" y1="95" x2="129.035" y2="118.75" gradientUnits="userSpaceOnUse">
<stop stop-color="#FF8000"/>
<stop offset="1" stop-color="#C0272D"/>
</linearGradient>
<linearGradient id="paint6_linear" x1="41.535" y1="62.5" x2="41.535" y2="86.25" gradientUnits="userSpaceOnUse">
<stop stop-color="#FF8000"/>
<stop offset="1" stop-color="#C0272D"/>
</linearGradient>
<linearGradient id="paint7_linear" x1="99.8681" y1="62.5" x2="99.8681" y2="86.25" gradientUnits="userSpaceOnUse">
<stop stop-color="#FF8000"/>
<stop offset="1" stop-color="#C0272D"/>
</linearGradient>
<linearGradient id="paint8_linear" x1="129.035" y1="62.5" x2="129.035" y2="86.25" gradientUnits="userSpaceOnUse">
<stop stop-color="#FF8000"/>
<stop offset="1" stop-color="#C0272D"/>
</linearGradient>
<linearGradient id="paint9_linear" x1="70.7016" y1="62.5" x2="70.7016" y2="86.25" gradientUnits="userSpaceOnUse">
<stop stop-color="#FF8000"/>
<stop offset="1" stop-color="#C0272D"/>
</linearGradient>
<linearGradient id="paint10_linear" x1="28.1605" y1="108.969" x2="28.1605" y2="127.606" gradientUnits="userSpaceOnUse">
<stop stop-color="#FF8000"/>
<stop offset="1" stop-color="#C0272D"/>
</linearGradient>
</defs>
</svg>
