<svg width="24" height="24" viewBox="0 0 24 24" fill="none" xmlns="http://www.w3.org/2000/svg">
<path d="M22.3125 0H3.5625C3.17419 0 2.85938 0.314812 2.85938 0.703125V4.03125H1.6875C1.29919 4.03125 0.984375 4.34606 0.984375 4.73438C0.984375 5.12269 1.29919 5.4375 1.6875 5.4375H2.85938V6.9375H1.6875C1.29919 6.9375 0.984375 7.25231 0.984375 7.64062C0.984375 8.02894 1.29919 8.34375 1.6875 8.34375H2.85938V9.84375H1.6875C1.29919 9.84375 0.984375 10.1586 0.984375 10.5469C0.984375 10.9352 1.29919 11.25 1.6875 11.25H2.85938V12.75H1.6875C1.29919 12.75 0.984375 13.0648 0.984375 13.4531C0.984375 13.8414 1.29919 14.1562 1.6875 14.1562H2.85938V15.6562H1.6875C1.29919 15.6562 0.984375 15.9711 0.984375 16.3594C0.984375 16.7477 1.29919 17.0625 1.6875 17.0625H2.85938V18.5625H1.6875C1.29919 18.5625 0.984375 18.8773 0.984375 19.2656C0.984375 19.6539 1.29919 19.9688 1.6875 19.9688H2.85938V23.2969C2.85938 23.6852 3.17419 24 3.5625 24H22.3125C22.7008 24 23.0156 23.6852 23.0156 23.2969V0.703125C23.0156 0.314812 22.7008 0 22.3125 0ZM15.0469 19.5469V22.5938H4.26562V19.9688H4.59375C4.98206 19.9688 5.29688 19.6539 5.29688 19.2656C5.29688 18.8773 4.98206 18.5625 4.59375 18.5625H4.26562V17.0625H4.59375C4.98206 17.0625 5.29688 16.7477 5.29688 16.3594C5.29688 15.9711 4.98206 15.6562 4.59375 15.6562H4.26562V14.1562H4.59375C4.98206 14.1562 5.29688 13.8414 5.29688 13.4531C5.29688 13.0648 4.98206 12.75 4.59375 12.75H4.26562V11.25H4.59375C4.98206 11.25 5.29688 10.9352 5.29688 10.5469C5.29688 10.1586 4.98206 9.84375 4.59375 9.84375H4.26562V8.34375H4.59375C4.98206 8.34375 5.29688 8.02894 5.29688 7.64062C5.29688 7.25231 4.98206 6.9375 4.59375 6.9375H4.26562V5.4375H4.59375C4.98206 5.4375 5.29688 5.12269 5.29688 4.73438C5.29688 4.34606 4.98206 4.03125 4.59375 4.03125H4.26562V1.40625H18.7969V18.8438H15.75C15.3617 18.8438 15.0469 19.1586 15.0469 19.5469ZM16.4531 21.5994V20.25H17.8025L17.1278 20.9247L16.4531 21.5994ZM21.6094 22.5938H17.4475L19.9972 20.044C20.1291 19.9122 20.2031 19.7333 20.2031 19.5469V1.40625H21.6094V22.5938Z" fill="#FF8000"/>
<path d="M9.31955 14.1517H14.2122C15.0756 14.1517 15.8621 13.7132 16.3161 12.9787C16.77 12.2442 16.8105 11.3446 16.4243 10.5723L13.978 5.6797C13.5564 4.83638 12.7087 4.3125 11.7659 4.3125C10.823 4.3125 9.97533 4.83638 9.55369 5.6797L7.10737 10.5723C6.72122 11.3446 6.76167 12.2442 7.21565 12.9787C7.66959 13.7132 8.45611 14.1517 9.31955 14.1517ZM12.469 12.7454H11.0627V11.3438H12.469V12.7454ZM8.36517 11.2012L10.8115 6.30858C10.9961 5.93925 11.3529 5.71875 11.7659 5.71875C12.1788 5.71875 12.5356 5.93925 12.7202 6.30858L15.1665 11.2012C15.3356 11.5394 15.3186 11.9177 15.1199 12.2393C14.9211 12.5609 14.5903 12.7454 14.2122 12.7454H13.8752V10.6406C13.8752 10.2523 13.5604 9.9375 13.1721 9.9375H10.3596C9.9713 9.9375 9.65648 10.2523 9.65648 10.6406V12.7454H9.31955C8.9415 12.7454 8.61061 12.5609 8.41186 12.2393C8.21311 11.9177 8.19609 11.5394 8.36517 11.2012Z" fill="#FF8000"/>
<path d="M13.875 15.5625H7.3125C6.92419 15.5625 6.60938 15.8773 6.60938 16.2656C6.60938 16.6539 6.92419 16.9688 7.3125 16.9688H13.875C14.2633 16.9688 14.5781 16.6539 14.5781 16.2656C14.5781 15.8773 14.2633 15.5625 13.875 15.5625Z" fill="#FF8000"/>
<path d="M12.4688 18.375H7.3125C6.92419 18.375 6.60938 18.6898 6.60938 19.0781C6.60938 19.4664 6.92419 19.7812 7.3125 19.7812H12.4688C12.8571 19.7812 13.1719 19.4664 13.1719 19.0781C13.1719 18.6898 12.8571 18.375 12.4688 18.375Z" fill="#FF8000"/>
</svg>
