<svg width="26" height="22" viewBox="0 0 26 22" fill="none" xmlns="http://www.w3.org/2000/svg">
<path d="M4.6 16.5556H3.4C2.76348 16.5556 2.15303 16.3214 1.70294 15.9047C1.25286 15.4879 1 14.9227 1 14.3333V3.22222C1 2.63285 1.25286 2.06762 1.70294 1.65087C2.15303 1.23413 2.76348 1 3.4 1H22.6C23.2365 1 23.847 1.23413 24.2971 1.65087C24.7471 2.06762 25 2.63285 25 3.22222V14.3333C25 14.9227 24.7471 15.4879 24.2971 15.9047C23.847 16.3214 23.2365 16.5556 22.6 16.5556H21.4" stroke="#FF8000" stroke-width="2" stroke-linecap="round" stroke-linejoin="round"/>
<path d="M13 14.3333L19 21H7L13 14.3333Z" stroke="#FF8000" stroke-width="2" stroke-linecap="round" stroke-linejoin="round"/>
</svg>
