<svg width="28" height="24" viewBox="0 0 28 24" fill="none" xmlns="http://www.w3.org/2000/svg">
<path d="M9.10001 16.5C8.99545 16.5 8.89088 16.5164 8.79113 16.5511C8.22413 16.7484 7.62782 16.875 7.00001 16.875C6.3722 16.875 5.77588 16.7484 5.20845 16.5511C5.1087 16.5164 5.00457 16.5 4.90001 16.5C2.18488 16.5 -0.0144279 18.8662 9.64204e-06 21.7791C0.00613464 23.01 0.950697 24 2.10001 24H11.9C13.0493 24 13.9939 23.01 14 21.7791C14.0144 18.8662 11.8151 16.5 9.10001 16.5ZM7.00001 15C9.31963 15 11.2 12.9853 11.2 10.5C11.2 8.01469 9.31963 6 7.00001 6C4.68038 6 2.80001 8.01469 2.80001 10.5C2.80001 12.9853 4.68038 15 7.00001 15ZM25.9 0H9.10001C7.94195 0 7.00001 1.04297 7.00001 2.32453V4.5C8.02463 4.5 8.97313 4.81781 9.80001 5.33438V3H25.2V16.5H22.4V13.5H16.8V16.5H13.4645C14.3001 17.2823 14.9135 18.3155 15.2009 19.5H25.9C27.0581 19.5 28 18.457 28 17.1755V2.32453C28 1.04297 27.0581 0 25.9 0Z" fill="#FF8000"/>
</svg>
