<svg width="24" height="24" viewBox="0 0 24 24" fill="none" xmlns="http://www.w3.org/2000/svg">
<path fill-rule="evenodd" clip-rule="evenodd" d="M2 10H22C22.5523 10 23 9.55228 23 9V6C23 4.34315 21.6569 3 20 3H4C2.34315 3 1 4.34315 1 6V9C1 9.55228 1.44772 10 2 10ZM21 8H3V6C3 5.44772 3.44772 5 4 5H20C20.5523 5 21 5.44772 21 6V8Z" fill="#FF8000"/>
<path d="M14.81 23H4C2.34315 23 1 21.6569 1 20V9C1 8.44772 1.44772 8 2 8H22C22.5523 8 23 8.44772 23 9V14.66C23 15.2123 22.5523 15.66 22 15.66C21.4477 15.66 21 15.2123 21 14.66V10H3V20C3 20.5523 3.44772 21 4 21H14.81C15.3623 21 15.81 21.4477 15.81 22C15.81 22.5523 15.3623 23 14.81 23Z" fill="#FF8000"/>
<path d="M7 7C6.44772 7 6 6.55228 6 6V2C6 1.44772 6.44772 1 7 1C7.55228 1 8 1.44772 8 2V6C8 6.55228 7.55228 7 7 7Z" fill="#FF8000"/>
<path d="M17 7C16.4477 7 16 6.55228 16 6V2C16 1.44772 16.4477 1 17 1C17.5523 1 18 1.44772 18 2V6C18 6.55228 17.5523 7 17 7Z" fill="#FF8000"/>
<path d="M7 14C7.55228 14 8 13.5523 8 13C8 12.4477 7.55228 12 7 12C6.44772 12 6 12.4477 6 13C6 13.5523 6.44772 14 7 14Z" fill="#FF8000"/>
<path d="M12 14C12.5523 14 13 13.5523 13 13C13 12.4477 12.5523 12 12 12C11.4477 12 11 12.4477 11 13C11 13.5523 11.4477 14 12 14Z" fill="#FF8000"/>
<path d="M7 19C7.55228 19 8 18.5523 8 18C8 17.4477 7.55228 17 7 17C6.44772 17 6 17.4477 6 18C6 18.5523 6.44772 19 7 19Z" fill="#FF8000"/>
<path fill-rule="evenodd" clip-rule="evenodd" d="M12 18C12 21.3137 14.6863 24 18 24C19.5913 24 21.1174 23.3679 22.2426 22.2426C23.3679 21.1174 24 19.5913 24 18C24 14.6863 21.3137 12 18 12C14.6863 12 12 14.6863 12 18ZM14 18C14 15.7909 15.7909 14 18 14C20.2091 14 22 15.7909 22 18C22 20.2091 20.2091 22 18 22C15.7909 22 14 20.2091 14 18Z" fill="#FF8000"/>
<path d="M17 21C16.7342 21.0015 16.4787 20.8972 16.29 20.71L15.29 19.71C14.8979 19.3179 14.8979 18.6821 15.29 18.29C15.6821 17.8979 16.3179 17.8979 16.71 18.29L17 18.59L19.29 16.29C19.6821 15.8979 20.3179 15.8979 20.71 16.29C21.1021 16.6821 21.1021 17.3179 20.71 17.71L17.71 20.71C17.5213 20.8972 17.2658 21.0015 17 21Z" fill="#FF8000"/>
</svg>
